<svg width="48" height="48" viewBox="0 0 48 48" fill="none" xmlns="http://www.w3.org/2000/svg">
<path d="M24 0C10.7656 0 0 10.7656 0 24C0 37.2344 10.7656 48 24 48C37.2344 48 48 37.2344 48 24C48 10.7656 37.2344 0 24 0ZM21.9375 4.125C21.9609 4.125 21.9766 4.125 22 4.125C22.0703 5.17188 22.9375 6 24 6C25.0625 6 25.9297 5.17188 26 4.125C35.4766 5.05469 42.9453 12.5234 43.875 22C42.8281 22.0703 42 22.9375 42 24C42 25.0625 42.8281 25.9297 43.875 26C42.9453 35.4766 35.4766 42.9453 26 43.875C25.9297 42.8281 25.0625 42 24 42C22.9375 42 22.0703 42.8281 22 43.875C12.5234 42.9453 5.05469 35.4766 4.125 26C5.17188 25.9297 6 25.0625 6 24C6 22.9375 5.17188 22.0703 4.125 22C5.05469 12.5391 12.4922 5.07813 21.9375 4.125ZM22 10V24.8125L22.5625 25.4375L30.5625 33.4375L33.4375 30.5625L26 23.125V10H22Z" fill="#006145"/>
</svg>
