<svg width="85" height="86" viewBox="0 0 85 86" fill="none" xmlns="http://www.w3.org/2000/svg">
<circle cx="42.5" cy="42.5039" r="40" stroke="#006145" stroke-width="5"/>
<g clip-path="url(#clip0)">
<path d="M53.3219 34.5615L48.4936 24.9949V22.7911H48.7595C49.2002 22.7911 49.5574 22.434 49.5574 21.9933V18.8018C49.5574 18.361 49.2002 18.0039 48.7595 18.0039H37.2404C36.7997 18.0039 36.4425 18.361 36.4425 18.8018V21.9933C36.4425 22.434 36.7997 22.7911 37.2404 22.7911H37.5063V24.9949L32.678 34.5615C32.0925 35.7216 31.6338 37.6484 31.6338 38.9479V65.0784C31.6338 66.6915 32.9461 68.0039 34.5593 68.0039H51.4405C53.0537 68.0039 54.366 66.6915 54.366 65.0784V38.9479C54.366 37.6483 53.9074 35.7216 53.3219 34.5615ZM38.0383 19.5997H47.9616V21.1954H38.0383V19.5997ZM39.0166 25.5442C39.0728 25.4327 39.1021 25.3097 39.1021 25.1848V22.7911H46.8977V25.1848C46.8977 25.3097 46.927 25.4327 46.9833 25.5442L50.0197 31.5605C49.4441 31.7471 49.0406 32.0481 48.6913 32.3091C48.2177 32.6633 47.8755 32.919 47.1125 32.919C46.3495 32.919 46.0073 32.6633 45.5337 32.3091C44.9809 31.8959 44.2929 31.3816 42.9993 31.3816C41.7058 31.3816 41.0179 31.8959 40.4652 32.3092C39.9917 32.6633 39.6495 32.919 38.8867 32.919C38.1238 32.919 37.7817 32.6633 37.3081 32.3092C36.959 32.0482 36.5555 31.7472 35.98 31.5606L39.0166 25.5442ZM52.7703 65.0784C52.7703 65.8117 52.1738 66.4082 51.4405 66.4082H34.5594C33.8261 66.4082 33.2296 65.8117 33.2296 65.0784V38.9479C33.2296 37.8975 33.6294 36.2181 34.1027 35.2803L35.2449 33.0174C35.7028 33.1022 35.9894 33.3155 36.3528 33.5871C36.9055 34.0004 37.5935 34.5148 38.8869 34.5148C40.1803 34.5148 40.8683 34.0004 41.4209 33.5871C41.8944 33.2331 42.2366 32.9773 42.9994 32.9773C43.7624 32.9773 44.1046 33.2331 44.5783 33.5872C45.131 34.0005 45.819 34.5148 47.1125 34.5148C48.4061 34.5148 49.094 34.0004 49.6469 33.5872C50.0103 33.3155 50.297 33.1022 50.7551 33.0174L51.8972 35.2804C52.3704 36.2179 52.7703 37.8975 52.7703 38.9479V65.0784Z" fill="#005B2A"/>
<path d="M35.6231 60.0251C35.1824 60.0251 34.8252 60.3823 34.8252 60.823V64.0145C34.8252 64.4553 35.1824 64.8124 35.6231 64.8124C36.0637 64.8124 36.4209 64.4553 36.4209 64.0145V60.823C36.4209 60.3823 36.0637 60.0251 35.6231 60.0251Z" fill="#005B2A"/>
<path d="M36.5989 35.6465C36.2055 35.448 35.7257 35.6059 35.5271 35.9992C35.1729 36.7011 34.8252 38.1615 34.8252 38.9478V57.6314C34.8252 58.0722 35.1824 58.4293 35.6231 58.4293C36.0637 58.4293 36.4209 58.0722 36.4209 57.6314V38.9478C36.4209 38.4083 36.7086 37.1998 36.9517 36.7183C37.1502 36.3249 36.9922 35.845 36.5989 35.6465Z" fill="#005B2A"/>
<path d="M41.4956 25.9826H44.504C44.9447 25.9826 45.3019 25.6255 45.3019 25.1847C45.3019 24.744 44.9447 24.3868 44.504 24.3868H41.4956C41.055 24.3868 40.6978 24.744 40.6978 25.1847C40.6978 25.6255 41.055 25.9826 41.4956 25.9826Z" fill="#005B2A"/>
</g>
<line x1="25.3566" y1="59.5217" x2="12.9514" y2="70.466" stroke="#006145" stroke-width="5"/>
<line x1="71.9728" y1="15.8615" x2="55.8398" y2="30.0947" stroke="#006145" stroke-width="5"/>
<defs>
<clipPath id="clip0">
<rect width="50" height="50" fill="white" transform="translate(18 18.0039)"/>
</clipPath>
</defs>
</svg>
