<svg width="80" height="80" viewBox="0 0 80 80" fill="none" xmlns="http://www.w3.org/2000/svg">
<path d="M40 10C24.739 10 12.102 21.468 10.2539 36.2565C10.1882 36.6964 10.2111 37.145 10.3214 37.5759C10.4317 38.0068 10.6271 38.4113 10.8961 38.7655C11.1651 39.1197 11.5023 39.4165 11.8878 39.6384C12.2733 39.8603 12.6993 40.0028 13.1407 40.0576C13.5821 40.1123 14.03 40.0782 14.458 39.9572C14.886 39.8361 15.2855 39.6307 15.6328 39.3529C15.9802 39.0752 16.2685 38.7307 16.4807 38.3398C16.6929 37.9489 16.8248 37.5195 16.8685 37.0768C18.3071 25.5654 28.0677 16.6667 40 16.6667C46.7144 16.6667 52.7171 19.4993 56.9596 24.0169L50.4883 30.4883C49.8383 31.1383 49.8383 32.1951 50.4883 32.8451C50.8116 33.1717 51.24 33.3333 51.6667 33.3333H66.6667C67.5507 33.3333 68.3986 32.9821 69.0237 32.357C69.6488 31.7319 70 30.8841 70 30V15C70 14.5733 69.8351 14.1483 69.5117 13.8216C68.8617 13.1716 67.8049 13.1716 67.1549 13.8216L61.6797 19.2969C56.2183 13.5707 48.5185 10 40 10ZM66.4714 39.9544C65.6459 39.9479 64.8474 40.248 64.2304 40.7964C63.6134 41.3448 63.2218 42.1026 63.1315 42.9232C61.6929 54.4346 51.9323 63.3333 40 63.3333C33.2857 63.3333 27.2942 60.497 23.0469 55.9766L29.5117 49.5117C30.1617 48.8617 30.1617 47.8049 29.5117 47.1549C29.1884 46.8283 28.76 46.6667 28.3333 46.6667H13.3333C12.4493 46.6667 11.6014 47.0179 10.9763 47.643C10.3512 48.2681 10 49.1159 10 50V65C10 65.4267 10.1649 65.8517 10.4883 66.1784C11.1383 66.8284 12.1951 66.8284 12.8451 66.1784L18.3268 60.6966C23.7856 66.4182 31.4848 70 40 70C55.261 70 67.898 58.532 69.7461 43.7435C69.8109 43.274 69.7748 42.7961 69.6402 42.3417C69.5057 41.8872 69.2758 41.4667 68.9659 41.1081C68.656 40.7496 68.2732 40.4612 67.8431 40.2622C67.4129 40.0633 66.9453 39.9584 66.4714 39.9544Z" fill="#006145"/>
</svg>
