<svg width="67" height="67" viewBox="0 0 67 67" fill="none" xmlns="http://www.w3.org/2000/svg">
<g clip-path="url(#clip0)">
<path d="M33.5001 2.57275C16.4358 2.57275 2.57275 16.4358 2.57275 33.5001C2.57275 50.5643 16.4358 64.4274 33.5001 64.4274C35.4116 64.4274 37.284 64.2542 39.1008 63.9222C39.3789 63.8713 39.6337 63.7337 39.8289 63.5293C40.0241 63.3248 40.1497 63.0638 40.1877 62.7837C40.2258 62.5036 40.1743 62.2186 40.0407 61.9695C39.907 61.7204 39.6981 61.5199 39.4437 61.3967C39.4068 61.1731 39.3138 60.9625 39.1734 60.7846C39.033 60.6068 38.8498 60.4674 38.6409 60.3796C38.4321 60.2917 38.2043 60.2583 37.979 60.2824C37.7537 60.3064 37.5382 60.3873 37.3526 60.5173C36.5231 61.0572 35.6876 61.4007 34.8401 61.5851V34.8401H48.0673C48.212 34.864 48.3597 34.864 48.5044 34.8401H62.8649C63.0585 34.8727 63.257 34.8623 63.4462 34.8097C63.6354 34.7571 63.8107 34.6636 63.9598 34.5358C64.1088 34.4079 64.228 34.2489 64.3088 34.0699C64.3896 33.891 64.4301 33.6964 64.4274 33.5001C64.4274 16.4358 50.5643 2.57275 33.5001 2.57275ZM32.1601 5.40978V18.6842C28.7253 18.6018 25.4613 18.2085 22.4424 17.5902C22.971 15.9937 23.5714 14.5105 24.2378 13.1776C26.4528 8.74766 29.2621 6.05155 32.1601 5.40978ZM34.8401 5.40978C37.738 6.05155 40.5473 8.74766 42.7623 13.1776C43.4309 14.5148 44.0331 16.0035 44.5629 17.6059C41.5483 18.2179 38.2787 18.6034 34.8401 18.6842V5.40978ZM25.6904 6.35197C24.2359 7.87562 22.939 9.78181 21.8405 11.9789C21.0781 13.5036 20.4096 15.187 19.8253 16.9804C17.1892 16.2828 14.8093 15.3982 12.7536 14.3658C16.211 10.6183 20.6503 7.79644 25.6904 6.35197ZM41.3097 6.35197C46.3455 7.7952 50.7825 10.6127 54.2386 14.3553C52.213 15.4064 49.8336 16.3013 47.1827 17.0013C46.5969 15.2 45.9249 13.5096 45.1596 11.9789C44.0611 9.78181 42.7642 7.87562 41.3097 6.35197ZM55.9895 16.4491C59.335 20.8572 61.4385 26.2604 61.7133 32.1601H49.5984C49.5004 27.6523 48.9239 23.3961 47.9365 19.5845C50.9475 18.7838 53.6582 17.7271 55.9895 16.4491ZM10.9949 16.4674C13.3517 17.7153 16.0683 18.7608 19.0715 19.5609C18.0803 23.3786 17.4999 27.643 17.4017 32.1601H5.28678C5.56119 26.2689 7.65791 20.872 10.9949 16.4674ZM21.6835 20.1786C24.9465 20.8598 28.4614 21.2812 32.1601 21.3642V32.1601H20.0817C20.1818 27.841 20.7466 23.7737 21.6835 20.1786ZM45.3219 20.1995C46.2556 23.7896 46.8185 27.8492 46.9184 32.1601H34.8401V21.3642C38.5399 21.2835 42.0605 20.874 45.3219 20.1995ZM5.28678 34.8401H17.4017C17.4997 39.3478 18.0762 43.6041 19.0637 47.4156C16.0526 48.2163 13.3419 49.273 11.0106 50.551C7.66509 46.1429 5.56159 40.7397 5.28678 34.8401ZM20.0817 34.8401H32.1601V45.636C28.4602 45.7166 24.9396 46.1261 21.6782 46.8006C20.7446 43.2105 20.1816 39.1509 20.0817 34.8401ZM56.2408 37.5253C55.274 37.5246 54.3445 37.5664 53.4535 37.6457C42.761 38.5967 37.5253 45.0205 37.5253 50.2762C37.5253 54.4762 39.4319 56.9653 41.3647 58.1252C42.3311 58.7051 43.2743 58.9853 43.9845 59.1276C44.0144 59.1336 44.0287 59.1325 44.0578 59.138C43.3673 61.2637 42.8801 63.4515 42.8801 65.6601C42.8775 65.8376 42.9104 66.0139 42.9766 66.1787C43.0428 66.3435 43.1411 66.4934 43.2658 66.6199C43.3904 66.7464 43.539 66.8468 43.7028 66.9153C43.8667 66.9838 44.0425 67.0191 44.2201 67.0191C44.3976 67.0191 44.5735 66.9838 44.7373 66.9153C44.9011 66.8468 45.0497 66.7464 45.1743 66.6199C45.299 66.4934 45.3973 66.3435 45.4635 66.1787C45.5298 66.0139 45.5626 65.8376 45.5601 65.6601C45.5601 64.1837 45.9922 62.6763 46.3845 61.1768C47.4705 61.9085 48.8122 62.4678 50.3103 62.8099C53.328 63.4991 57.0853 63.0429 60.1875 60.1954C63.5426 57.1159 64.0995 53.2621 64.3881 49.8339C64.6767 46.4057 64.7887 43.3706 66.7174 40.891C66.8548 40.714 66.9457 40.5055 66.9817 40.2843C67.0177 40.0632 66.9977 39.8366 66.9235 39.6252C66.8493 39.4138 66.7232 39.2244 66.5569 39.0742C66.3906 38.9241 66.1894 38.8181 65.9715 38.7658C62.3828 37.9069 59.1412 37.5273 56.2408 37.5253ZM55.9136 40.2131C58.1799 40.2245 60.7433 40.5188 63.5323 41.069C62.1116 43.8684 61.948 46.8835 61.7186 49.6088C61.4387 52.9342 61.038 55.7767 58.3738 58.222C55.9418 60.4544 53.2422 60.7313 50.907 60.198C49.2431 59.818 48.0706 58.9659 47.3057 58.2377C47.9823 56.6062 48.7171 54.9746 49.7004 53.5006C52.1594 49.8147 55.4037 46.8254 58.2194 45.4187C58.3768 45.34 58.5172 45.2311 58.6326 45.0982C58.7479 44.9652 58.8359 44.8108 58.8916 44.6439C58.9473 44.4769 58.9695 44.3006 58.957 44.125C58.9446 43.9494 58.8976 43.778 58.8189 43.6206C58.7402 43.4632 58.6313 43.3228 58.4983 43.2075C58.3653 43.0922 58.2109 43.0042 58.0439 42.9485C57.877 42.8929 57.7007 42.8707 57.5251 42.8832C57.3495 42.8957 57.1781 42.9426 57.0207 43.0214C53.6081 44.7262 50.1546 47.9909 47.4706 52.014C46.5298 53.4243 45.8554 55.0177 45.1544 56.5863C45.131 56.5848 45.118 56.5864 45.0863 56.5836C44.9548 56.5723 44.7536 56.5486 44.5106 56.4999C44.0246 56.4025 43.3725 56.2045 42.744 55.8273C41.4869 55.0729 40.2053 53.7317 40.2053 50.2762C40.2053 46.9191 44.1207 41.1403 53.7492 40.2969C54.436 40.2367 55.1582 40.2093 55.9136 40.2131ZM32.1601 48.316V61.5903C29.2621 60.9486 26.4528 58.2525 24.2378 53.8225C23.5692 52.4853 22.967 50.9966 22.4372 49.3942C25.4518 48.7822 28.7214 48.3967 32.1601 48.316ZM19.8174 49.9988C20.4032 51.8001 21.0752 53.4906 21.8405 55.0212C22.939 57.2183 24.2359 59.1245 25.6904 60.6481C20.6546 59.2049 16.2176 56.3874 12.7615 52.6448C14.7871 51.5937 17.1665 50.6988 19.8174 49.9988Z" fill="#006145"/>
</g>
<defs>
<clipPath id="clip0">
<rect width="67" height="67" fill="white"/>
</clipPath>
</defs>
</svg>
