<svg width="51" height="47" viewBox="0 0 51 47" fill="none" xmlns="http://www.w3.org/2000/svg">
<path d="M36.9019 0C29.5343 0 25.4496 5.31896 25.4496 5.31896C25.4496 5.31896 21.3649 0 13.9973 0C6.26569 0 0 6.26569 0 13.9973C0 24.6123 12.5008 34.899 15.9849 38.1489C19.9983 41.89 25.4496 46.7 25.4496 46.7C25.4496 46.7 30.9009 41.89 34.9143 38.1489C38.3983 34.899 50.8992 24.6123 50.8992 13.9973C50.8992 6.26569 44.6335 0 36.9019 0ZM32.6035 33.3644C32.153 33.7716 31.7611 34.1254 31.443 34.4231C29.5317 36.2046 27.2718 38.2482 25.4496 39.8821C23.6274 38.2482 21.3649 36.202 19.4562 34.4231C19.1356 34.1254 18.7436 33.7691 18.2957 33.3644C14.6819 30.0992 5.08992 21.426 5.08992 13.9973C5.08992 9.0855 9.08551 5.08992 13.9973 5.08992C18.6469 5.08992 21.342 8.33474 21.4133 8.41872L25.4496 12.7248L29.4859 8.41872C29.5114 8.38564 32.2523 5.08992 36.9019 5.08992C41.8137 5.08992 45.8093 9.0855 45.8093 13.9973C45.8093 21.426 36.2173 30.0992 32.6035 33.3644Z" fill="#006145"/>
</svg>
