<svg width="85" height="86" viewBox="0 0 85 86" fill="none" xmlns="http://www.w3.org/2000/svg">
<circle cx="42.5" cy="42.5039" r="40" stroke="#006145" stroke-width="5"/>
<g clip-path="url(#clip0)">
<path d="M58.2689 58.9913L48.753 35.7968C48.2254 34.51 47.9576 33.1525 47.9576 31.7617V25.6306C47.9576 24.9704 48.2147 24.3497 48.6816 23.8828C49.2509 23.3135 49.5647 22.5565 49.5647 21.7514V20.8828C49.5647 20.3974 49.1709 20.0039 48.6858 20.0039H36.4144C35.9289 20.0039 35.5355 20.3974 35.5355 20.8828V21.7514C35.5355 22.5565 35.8489 23.3135 36.4181 23.8828C36.8851 24.3497 37.1422 24.9704 37.1422 25.631V31.7617C37.1422 33.1525 36.8748 34.51 36.3467 35.7968L33.732 42.1702C33.731 42.1726 33.7299 42.175 33.7289 42.1774L26.8309 58.9913C26.2785 60.3382 26.4326 61.8642 27.2435 63.0731C28.0545 64.2822 29.4075 65.0039 30.8632 65.0039H54.2366C55.6923 65.0039 57.0457 64.2822 57.8566 63.0731C58.6672 61.8639 58.8213 60.3382 58.2689 58.9913ZM37.9731 36.4638C38.5883 34.9645 38.9 33.3825 38.9 31.7617V25.6306C38.9 24.5011 38.4602 23.4389 37.6613 22.6399C37.4265 22.4051 37.296 22.0934 37.2933 21.7617H47.8069C47.8041 22.0934 47.6736 22.4048 47.4385 22.6399C46.6399 23.4389 46.1998 24.5007 46.1998 25.6306V31.7613C46.1998 33.3822 46.5118 34.9642 47.1267 36.4635L49.2488 41.636H35.851L37.9731 36.4638ZM56.3964 62.0939C55.9055 62.8262 55.1183 63.2461 54.2366 63.2461H30.8632C29.9819 63.2461 29.1946 62.8262 28.7033 62.0939C28.3329 61.5415 28.1914 60.9009 28.2876 60.2691H29.7357C30.2208 60.2691 30.6146 59.8754 30.6146 59.3902C30.6146 58.9048 30.2208 58.5113 29.7357 58.5113H28.9282L29.9376 56.0504H31.4201C31.9055 56.0504 32.299 55.6566 32.299 55.1715C32.299 54.686 31.9055 54.2926 31.4201 54.2926H30.6589L31.6683 51.8316H33.1926C33.6781 51.8316 34.0715 51.4379 34.0715 50.9527C34.0715 50.4673 33.6781 50.0738 33.1926 50.0738H32.3896L33.3993 47.6129H34.9649C35.4503 47.6129 35.8438 47.2191 35.8438 46.734C35.8438 46.2485 35.4503 45.8551 34.9649 45.8551H34.1203L35.13 43.3941H49.9698L56.6426 59.6587C56.977 60.4741 56.8874 61.3619 56.3964 62.0939Z" fill="#005B2A"/>
<path d="M53.9284 59.0464C53.7444 58.597 53.2315 58.3821 52.7821 58.5658C52.333 58.7498 52.1178 59.2627 52.3014 59.7121L52.3062 59.7231C52.4456 60.0634 52.7735 60.2693 53.1199 60.2693C53.2308 60.2693 53.3434 60.2484 53.4526 60.2038C53.9017 60.0198 54.1169 59.5065 53.9329 59.0574L53.9284 59.0464Z" fill="#005B2A"/>
<path d="M52.6865 56.0182L49.5389 48.3463C49.3549 47.8973 48.8416 47.6823 48.3922 47.8667C47.9431 48.0507 47.7286 48.5643 47.9126 49.0134L51.0602 56.6853C51.1995 57.0255 51.5274 57.2308 51.8738 57.2308C51.9847 57.2308 52.0977 57.2099 52.2069 57.1649C52.6559 56.9809 52.8708 56.4673 52.6865 56.0182Z" fill="#005B2A"/>
</g>
<line x1="23.483" y1="62.6774" x2="12.8252" y2="72.0802" stroke="#006145" stroke-width="5"/>
<line x1="71.4674" y1="17.6618" x2="52.8408" y2="34.095" stroke="#006145" stroke-width="5"/>
<defs>
<clipPath id="clip0">
<rect width="45" height="45" fill="white" transform="translate(20 20.0039)"/>
</clipPath>
</defs>
</svg>
