<svg width="80" height="80" viewBox="0 0 80 80" fill="none" xmlns="http://www.w3.org/2000/svg">
<path d="M10.9741 8C4.71014 28.392 8.44368 43.4864 21.1877 47.401C22.3343 47.753 23.3954 47.9853 24.4221 48.1667C24.0114 46.5693 23.7814 44.9273 23.7814 43.25C23.7814 40.6047 24.1511 38.082 24.8231 35.6927C22.0231 29.914 19.1681 25.554 19.1148 25.474C18.2988 24.2473 18.6329 22.5946 19.8596 21.7813C21.0916 20.9653 22.7416 21.2967 23.5523 22.526C23.7283 22.79 25.4641 25.4326 27.5575 29.3073C29.8961 25.3686 33.2342 22.0185 37.3596 19.4531C32.6182 14.5891 24.1475 10.6347 10.9741 8ZM58.5991 19.125C43.0685 19.125 29.1148 28.1327 29.1148 43.25C29.1148 47.855 31.4392 52.2026 34.7189 55.5625C31.1529 63.0058 29.4481 68.5573 29.4481 68.5573C29.3461 68.8925 29.3111 69.2444 29.3452 69.5931C29.3792 69.9418 29.4816 70.2804 29.6466 70.5895C29.8115 70.8986 30.0356 71.1722 30.3063 71.3946C30.577 71.6171 30.8888 71.784 31.224 71.8859C31.5592 71.9879 31.9112 72.0228 32.2598 71.9887C32.6085 71.9545 32.947 71.852 33.2561 71.6871C33.5652 71.5221 33.8387 71.2979 34.0611 71.0272C34.2835 70.7565 34.4504 70.4446 34.5523 70.1094C34.5523 70.1094 38.2168 58.1883 46.1096 46.1354C49.5 41.0286 53.6794 35.7583 58.8335 30.9115C59.9055 29.9035 61.5963 29.954 62.6043 31.026C63.6123 32.098 63.5618 33.7862 62.4898 34.7969C53.3724 43.3702 47.3648 53.5477 43.6981 61.2917C45.1248 61.7477 46.5391 62.0156 47.8804 62.0156C62.5897 62.0156 72.0054 53.0754 72.0054 32.526V19.125H58.5991Z" fill="#006145"/>
</svg>
