<svg width="70" height="70" viewBox="0 0 70 70" fill="none" xmlns="http://www.w3.org/2000/svg">
<path d="M42.7939 28.4977L32.276 38.432L27.2286 33.2387C27.0954 33.1018 26.9366 32.9924 26.7612 32.9168C26.5858 32.8412 26.3972 32.8009 26.2062 32.7982C26.0152 32.7954 25.8255 32.8304 25.648 32.901C25.4705 32.9716 25.3087 33.0764 25.1717 33.2096C25.0347 33.3427 24.9253 33.5015 24.8497 33.6769C24.7741 33.8524 24.7338 34.041 24.7311 34.232C24.7284 34.423 24.7633 34.6126 24.8339 34.7901C24.9045 34.9676 25.0094 35.1295 25.1425 35.2665L31.1965 41.4809C31.4669 41.7533 31.8324 41.91 32.2161 41.9182C32.5998 41.9264 32.9717 41.7853 33.2534 41.5247L44.8216 30.6129C44.9607 30.4818 45.0725 30.3246 45.1507 30.1502C45.229 29.9758 45.272 29.7876 45.2774 29.5966C45.2829 29.4055 45.2505 29.2153 45.1823 29.0367C45.1141 28.8582 45.0114 28.6948 44.8799 28.556C44.6093 28.2748 44.239 28.1111 43.8488 28.1002C43.4587 28.0893 43.0798 28.232 42.7939 28.4977Z" fill="#006145"/>
<path d="M34.9891 13.2095C22.9687 13.2095 13.1948 22.9834 13.1948 35.0038C13.1948 47.0242 22.9687 56.7981 34.9891 56.7981C47.0096 56.7981 56.7834 47.0242 56.7834 35.0038C56.7834 22.9834 47.0096 13.2095 34.9891 13.2095ZM34.9891 53.8805C24.5734 53.8805 16.1124 45.405 16.1124 35.0038C16.1124 24.6026 24.5734 16.1271 34.9891 16.1271C39.9956 16.1271 44.7969 18.1158 48.337 21.6559C51.8771 25.196 53.8659 29.9974 53.8659 35.0038C53.8659 40.0102 51.8771 44.8116 48.337 48.3516C44.7969 51.8917 39.9956 53.8805 34.9891 53.8805Z" fill="#006145"/>
<path d="M64.9818 26.9803L65.4632 18.3297C65.4797 18.0455 65.4125 17.7627 65.2699 17.5164C65.1273 17.2701 64.9155 17.071 64.6608 16.9438L56.9584 13.0489L53.0635 5.34645C52.9338 5.0938 52.7342 4.88379 52.4885 4.74151C52.2428 4.59924 51.9612 4.53071 51.6776 4.54412L43.0124 5.01093L35.7914 0.240691C35.5532 0.0836866 35.2743 0 34.9891 0C34.7038 0 34.4249 0.0836866 34.1867 0.240691L26.9657 5.01093L18.3151 4.52953C18.0309 4.513 17.7482 4.5802 17.5018 4.72282C17.2555 4.86544 17.0564 5.0772 16.9292 5.33187L13.0343 13.0343L5.33187 16.9292C5.07921 17.0588 4.8692 17.2584 4.72692 17.5042C4.58465 17.7499 4.51612 18.0314 4.52953 18.3151L5.01093 26.9657L0.24069 34.1867C0.0836863 34.4249 0 34.7038 0 34.9891C0 35.2743 0.0836863 35.5533 0.24069 35.7914L4.99634 43.027L4.51494 51.6776C4.49841 51.9618 4.56561 52.2445 4.70823 52.4909C4.85085 52.7372 5.06261 52.9363 5.31728 53.0635L13.0197 56.9584L16.9147 64.6608C17.0443 64.9135 17.2439 65.1235 17.4896 65.2658C17.7353 65.408 18.0169 65.4766 18.3005 65.4632L26.9511 64.9818L34.1721 69.752C34.4085 69.9136 34.6881 70 34.9745 70C35.2608 70 35.5404 69.9136 35.7768 69.752L42.9978 64.9818L51.6484 65.4632C51.9326 65.4797 52.2154 65.4125 52.4617 65.2699C52.708 65.1273 52.9071 64.9155 53.0343 64.6608L56.9292 56.9584L64.6317 53.0635C64.8843 52.9338 65.0943 52.7342 65.2366 52.4885C65.3789 52.2428 65.4474 51.9612 65.434 51.6776L64.9526 43.027L69.7228 35.806C69.8798 35.5678 69.9635 35.2889 69.9635 35.0036C69.9635 34.7184 69.8798 34.4394 69.7228 34.2013L64.9818 26.9803ZM62.2684 41.8308C62.0902 42.0916 62.0078 42.406 62.035 42.7206L62.4872 50.9044L55.2079 54.5806C54.9302 54.7196 54.7051 54.9448 54.566 55.2225L50.8899 62.5018L42.706 62.0496C42.393 62.0385 42.0835 62.1196 41.8162 62.283L34.9891 66.7907L28.1619 62.283C27.9249 62.1227 27.6457 62.0364 27.3596 62.035H27.2866L19.1028 62.4872L15.4267 55.2079C15.2876 54.9302 15.0625 54.7051 14.7848 54.566L7.49087 50.9044L7.9431 42.7206C7.95424 42.4075 7.87307 42.0981 7.70969 41.8308L3.20203 35.0036L7.70969 28.1765C7.88786 27.9157 7.97033 27.6013 7.9431 27.2866L7.49087 19.1028L14.7702 15.4267C15.0479 15.2876 15.2731 15.0625 15.4121 14.7848L19.0882 7.50546L27.2721 7.95769C27.5851 7.96883 27.8946 7.88766 28.1619 7.72428L34.9891 3.21662L41.8162 7.72428C42.077 7.90245 42.3914 7.98492 42.706 7.95769L50.8899 7.50546L54.566 14.7848C54.7051 15.0625 54.9302 15.2876 55.2079 15.4267L62.4872 19.1028L62.035 27.2866C62.0239 27.5997 62.105 27.9092 62.2684 28.1765L66.7761 35.0036L62.2684 41.8308Z" fill="#006145"/>
</svg>
