<svg width="80" height="80" viewBox="0 0 80 80" fill="none" xmlns="http://www.w3.org/2000/svg">
<path d="M78.9733 43.4598L60.7833 35.8831L53.2067 17.6931C52.6867 16.4498 50.6467 16.4498 50.1267 17.6931L42.55 35.8831L24.36 43.4598C23.7367 43.7198 23.3333 44.3265 23.3333 44.9998C23.3333 45.6731 23.7367 46.2798 24.36 46.5398L42.55 54.1165L50.1267 72.3065C50.3867 72.9298 50.9933 73.3331 51.6667 73.3331C52.34 73.3331 52.9467 72.9298 53.2067 72.3065L60.7833 54.1165L78.9733 46.5398C79.5967 46.2798 80 45.6731 80 44.9998C80 44.3265 79.5967 43.7198 78.9733 43.4598ZM35.5267 20.0831L23.82 16.1798L19.9167 4.47312C19.46 3.11313 17.2067 3.11313 16.7533 4.47312L12.8467 16.1798L1.14 20.0831C0.46 20.3131 0 20.9498 0 21.6665C0 22.3831 0.46 23.0198 1.14 23.2498L12.85 27.1531L16.7533 38.8631C16.98 39.5398 17.6167 39.9998 18.3333 39.9998C19.05 39.9998 19.6867 39.5398 19.9167 38.8598L23.82 27.1498L35.53 23.2465C36.2067 23.0198 36.6667 22.3831 36.6667 21.6665C36.6667 20.9498 36.2067 20.3131 35.5267 20.0831ZM28.86 63.4165L22.15 61.1798L19.9133 54.4698C19.4567 53.1098 17.2033 53.1098 16.75 54.4698L14.5133 61.1798L7.80333 63.4165C7.12667 63.6465 6.66667 64.2831 6.66667 64.9998C6.66667 65.7165 7.12667 66.3531 7.80667 66.5831L14.5167 68.8198L16.7533 75.5298C16.98 76.2065 17.6167 76.6665 18.3333 76.6665C19.05 76.6665 19.6867 76.2065 19.9167 75.5265L22.1533 68.8165L28.8633 66.5798C29.54 66.3531 30 65.7165 30 64.9998C30 64.2831 29.54 63.6465 28.86 63.4165Z" fill="#006145"/>
</svg>
